<svg width="28" height="27" viewBox="0 0 28 27" fill="none" xmlns="http://www.w3.org/2000/svg">
<g id="icons8_Plus 1">
<path id="Vector" d="M13.8313 2.25C7.62809 2.25 2.5813 7.29679 2.5813 13.5C2.5813 19.7032 7.62809 24.75 13.8313 24.75C20.0345 24.75 25.0813 19.7032 25.0813 13.5C25.0813 7.29679 20.0345 2.25 13.8313 2.25ZM13.8313 3.9375C19.1225 3.9375 23.3938 8.20878 23.3938 13.5C23.3938 18.7912 19.1225 23.0625 13.8313 23.0625C8.54008 23.0625 4.2688 18.7912 4.2688 13.5C4.2688 8.20878 8.54008 3.9375 13.8313 3.9375ZM13.8181 7.86292C13.5945 7.86641 13.3815 7.9585 13.2257 8.11897C13.07 8.27944 12.9843 8.49516 12.9875 8.71875V12.6562H9.05005C8.93824 12.6547 8.82724 12.6753 8.72348 12.717C8.61973 12.7587 8.52529 12.8206 8.44567 12.8991C8.36604 12.9776 8.30282 13.0712 8.25966 13.1743C8.21651 13.2775 8.19428 13.3882 8.19428 13.5C8.19428 13.6118 8.21651 13.7225 8.25966 13.8257C8.30282 13.9288 8.36604 14.0224 8.44567 14.1009C8.52529 14.1794 8.61973 14.2413 8.72348 14.283C8.82724 14.3247 8.93824 14.3453 9.05005 14.3438H12.9875V18.2812C12.986 18.3931 13.0066 18.5041 13.0483 18.6078C13.09 18.7116 13.1519 18.806 13.2304 18.8856C13.3089 18.9653 13.4025 19.0285 13.5056 19.0716C13.6088 19.1148 13.7195 19.137 13.8313 19.137C13.9431 19.137 14.0538 19.1148 14.157 19.0716C14.2601 19.0285 14.3537 18.9653 14.4322 18.8856C14.5107 18.806 14.5726 18.7116 14.6143 18.6078C14.656 18.5041 14.6766 18.3931 14.675 18.2812V14.3438H18.6125C18.7244 14.3453 18.8354 14.3247 18.9391 14.283C19.0429 14.2413 19.1373 14.1794 19.2169 14.1009C19.2966 14.0224 19.3598 13.9288 19.4029 13.8257C19.4461 13.7225 19.4683 13.6118 19.4683 13.5C19.4683 13.3882 19.4461 13.2775 19.4029 13.1743C19.3598 13.0712 19.2966 12.9776 19.2169 12.8991C19.1373 12.8206 19.0429 12.7587 18.9391 12.717C18.8354 12.6753 18.7244 12.6547 18.6125 12.6562H14.675V8.71875C14.6767 8.60582 14.6556 8.49371 14.6131 8.38907C14.5706 8.28444 14.5075 8.18939 14.4276 8.10958C14.3477 8.02977 14.2526 7.96682 14.1479 7.92444C14.0432 7.88207 13.931 7.86115 13.8181 7.86292Z" fill="#01FF94"/>
</g>
</svg>
