<svg width="30" height="30" viewBox="0 0 30 30" fill="none" xmlns="http://www.w3.org/2000/svg">
<g id="icons8_upload_to_cloud 1">
<path id="Vector" d="M15 3.75C11.5649 3.75 8.57666 6.1377 7.74902 9.41895C5.72754 9.71924 4.12354 11.3306 3.80859 13.4253C1.56738 14.187 0 16.3257 0 18.75C0 21.8481 2.52685 24.375 5.625 24.375H11.25V22.5H5.625C3.55957 22.5 1.875 20.8154 1.875 18.75C1.875 16.9702 3.14209 15.4248 4.87793 15.0732L5.64697 14.8535L5.625 14.0625C5.625 12.5098 6.88477 11.25 8.34229 11.2427L8.53271 11.2646H9.3457L9.46289 10.4517C9.85107 7.69775 12.2314 5.625 15 5.625C17.2632 5.625 19.2993 6.97266 20.1855 9.05273L20.5151 9.8584L21.3354 9.58008C21.7603 9.44092 22.1411 9.375 22.5 9.375C24.5654 9.375 26.25 11.0596 26.25 13.125C26.25 13.5645 26.1621 14.0112 25.9863 14.458L25.7227 15.1758L26.3672 15.5859C27.4658 16.2817 28.125 17.4609 28.125 18.75C28.125 20.8154 26.4404 22.5 24.375 22.5H16.875V24.375H24.375C27.4731 24.375 30 21.8481 30 18.75C30 17.0654 29.2529 15.4907 27.9639 14.4287C28.0737 13.9966 28.125 13.5571 28.125 13.125C28.125 9.71192 25.1074 6.92871 21.5479 7.58789C20.2295 5.23682 17.7466 3.75 15 3.75ZM14.0625 15L9.375 20.625H13.125V28.125H15V20.625H18.75L14.0625 15Z" fill="white"/>
</g>
</svg>
